<svg width="22" height="28" viewBox="0 0 22 28" fill="none" xmlns="http://www.w3.org/2000/svg">
<path d="M19.0002 5.99984H16.3335C16.3335 3.05317 13.9468 0.666504 11.0002 0.666504C8.0535 0.666504 5.66683 3.05317 5.66683 5.99984H3.00016C1.5335 5.99984 0.333496 7.19984 0.333496 8.6665V24.6665C0.333496 26.1332 1.5335 27.3332 3.00016 27.3332H19.0002C20.4668 27.3332 21.6668 26.1332 21.6668 24.6665V8.6665C21.6668 7.19984 20.4668 5.99984 19.0002 5.99984ZM11.0002 3.33317C12.4668 3.33317 13.6668 4.53317 13.6668 5.99984H8.3335C8.3335 4.53317 9.5335 3.33317 11.0002 3.33317ZM19.0002 24.6665H3.00016V8.6665H5.66683V11.3332C5.66683 12.0665 6.26683 12.6665 7.00016 12.6665C7.7335 12.6665 8.3335 12.0665 8.3335 11.3332V8.6665H13.6668V11.3332C13.6668 12.0665 14.2668 12.6665 15.0002 12.6665C15.7335 12.6665 16.3335 12.0665 16.3335 11.3332V8.6665H19.0002V24.6665Z" fill="url(#paint0_linear_4418_449)"/>
<defs>
<linearGradient id="paint0_linear_4418_449" x1="9.24708" y1="-2.53351" x2="40.2751" y2="0.753261" gradientUnits="userSpaceOnUse">
<stop stop-color="#002F52"/>
<stop offset="1" stop-color="#326589"/>
</linearGradient>
</defs>
</svg>
